  0
SECTION
  2
HEADER
  9
$ACADVER
  1
AC1009
  9
$INSBASE
 10
0.0
 20
0.0
 30
0.0
  9
$EXTMIN
 10
0.0
 20
0.0
 30
0.0
  9
$EXTMAX
 10
0.0
 20
0.0
 30
0.0
  0
ENDSEC
  0
SECTION
  2
TABLES
  0
TABLE
  2
VPORT
 70
1
  0
VPORT
  2
*ACTIVE
 70
0
 10
0.0
 20
0.0
 11
1.0
 21
1.0
 12
-5.0
 22
1.0
 13
0.0
 23
0.0
 14
0.1
 24
0.1
 15
0.1
 25
0.1
 16
0.0
 26
0.0
 36
1.0
 17
0.0
 27
0.0
 37
0.0
 40
10.0
 41
1.0
 42
50.0
 43
0.0
 44
0.0
 50
0.0
 51
0.0
 71
0
 72
100
 73
1
 74
1
 75
0
 76
0
 77
0
 78
0
  0
ENDTAB
  0
TABLE
  2
LTYPE
 70
8
  0
LTYPE
  2
CONTINUOUS
 70
0
  3
Solid line
 72
65
 73
0
 40
0.0
  0
LTYPE
  2
DOT
 70
0
  3
. . . . . . .
 72
65
 73
2
 40
0.25
 49
0.0
 49
-0.25
  0
LTYPE
  2
DASHED
 70
0
  3
__ __ __ __ __
 72
65
 73
2
 40
0.8
 49
0.5
 49
-0.3
  0
LTYPE
  2
DASHDOT
 70
0
  3
__ . __ . __ .
 72
65
 73
4
 40
1.0
 49
0.5
 49
-0.25
 49
0.0
 49
-0.25
  0
LTYPE
  2
DIVIDE
 70
0
  3
____ . . ____ . . 
 72
65
 73
6
 40
1.25
 49
0.5
 49
-0.25
 49
0.0
 49
-0.25
 49
0.0
 49
-0.25
  0
LTYPE
  2
BORDER
 70
0
  3
__ __ . __ __ . 
 72
65
 73
6
 40
1.75
 49
0.5
 49
-0.25
 49
0.5
 49
-0.25
 49
0.0
 49
-0.25
  0
LTYPE
  2
HIDDEN
 70
0
  3
__ __ __ __ __
 72
65
 73
2
 40
0.4
 49
0.25
 49
-0.25
  0
LTYPE
  2
CENTER
 70
0
  3
____ _ ____ _ __
 72
65
 73
4
 40
2.0
 49
1.25
 49
-0.25
 49
0.25
 49
-0.25
  0
ENDTAB
  0
TABLE
  2
LAYER
 70
1
  0
LAYER
  2
PYDXF
 70
64
 62
7
  6
continuous
  0
ENDTAB
  0
TABLE
  2
STYLE
 70
1
  0
STYLE
  2
STANDARD
 70
0
 40
0
 41
1.0
 50
0.0
 71
0
 42
1
 3
ARIAL.TTF
 4

  0
ENDTAB
  0
TABLE
  2
VIEW
 70
1
  0
VIEW
  2
BF_TOPVIEW
 70
0
 40
120.0
 10
0.0
 20
0.0
 41
200.0
 11
0.0
 21
0.0
 31
1.0
 12
0.0
 22
0.0
 32
0.0
 42
50.0
 43
0.0
 44
0.0
 50
0.0
 71
0
  0
ENDTAB
  0
ENDSEC
  0
SECTION
  2
BLOCKS
  0
ENDSEC
  0
SECTION
  2
ENTITIES
  0
3DFACE
  8
0
 10
-2.1442699432373047
 20
4.2191009521484375
 30
2.0063276290893555
 11
-2.147141218185425
 21
4.223796367645264
 31
2.0280513763427734
 12
-1.7425411939620972
 22
3.562209367752075
 32
2.22452449798584
 13
-1.7396697998046875
 23
3.557514190673828
 33
2.202800750732422
  0
3DFACE
  8
0
 10
-2.826758861541748
 20
3.80171799659729
 30
2.0063276290893555
 11
-2.8296303749084473
 21
3.806413173675537
 31
2.0280513763427734
 12
-2.147141218185425
 22
4.223796367645264
 32
2.0280513763427734
 13
-2.1442699432373047
 23
4.2191009521484375
 33
2.0063276290893555
  0
3DFACE
  8
0
 10
-2.543959617614746
 20
4.101681232452393
 30
4.053622722625732
 11
-2.5416927337646484
 21
4.09797477722168
 31
4.054723262786865
 12
-2.5378692150115967
 22
4.100313186645508
 32
4.054723262786865
 13
-2.5401358604431152
 23
4.104019641876221
 33
4.053622722625732
  0
3DFACE
  8
0
 10
-1.7396697998046875
 20
3.557514190673828
 30
2.202800750732422
 11
-1.7425411939620972
 21
3.562209367752075
 31
2.22452449798584
 12
-2.42503023147583
 22
3.1448264122009277
 32
2.22452449798584
 13
-2.42215895652771
 23
3.1401312351226807
 33
2.202800750732422
  0
3DFACE
  8
0
 10
-2.42215895652771
 20
3.1401312351226807
 30
2.202800750732422
 11
-2.42503023147583
 21
3.1448264122009277
 31
2.22452449798584
 12
-2.8296303749084473
 22
3.806413173675537
 32
2.0280513763427734
 13
-2.826758861541748
 23
3.80171799659729
 33
2.0063276290893555
  0
3DFACE
  8
0
 10
-2.0291643142700195
 20
3.2599074840545654
 30
0.1772296279668808
 11
-2.0253405570983887
 21
3.2622458934783936
 31
0.1772296279668808
 12
-1.7396697998046875
 22
3.557514190673828
 32
2.202800750732422
 13
-2.42215895652771
 23
3.1401312351226807
 33
2.202800750732422
  0
3DFACE
  8
0
 10
-2.5378692150115967
 20
4.100313186645508
 30
4.054723262786865
 11
-2.5416927337646484
 21
4.09797477722168
 31
4.054723262786865
 12
-2.42503023147583
 22
3.1448264122009277
 32
2.22452449798584
 13
-1.7425411939620972
 23
3.562209367752075
 33
2.22452449798584
  0
3DFACE
  8
0
 10
-2.031430959701538
 20
3.2636141777038574
 30
0.17612887918949127
 11
-2.0291643142700195
 21
3.2599074840545654
 31
0.1772296279668808
 12
-2.42215895652771
 22
3.1401312351226807
 32
2.202800750732422
 13
-2.826758861541748
 23
3.80171799659729
 33
2.0063276290893555
  0
3DFACE
  8
0
 10
-2.5416927337646484
 20
4.09797477722168
 30
4.054723262786865
 11
-2.543959617614746
 21
4.101681232452393
 31
4.053622722625732
 12
-2.8296303749084473
 22
3.806413173675537
 32
2.0280513763427734
 13
-2.42503023147583
 23
3.1448264122009277
 33
2.22452449798584
  0
3DFACE
  8
0
 10
-2.0276074409484863
 20
3.2659523487091064
 30
0.17612887918949127
 11
-2.031430959701538
 21
3.2636141777038574
 31
0.17612887918949127
 12
-2.826758861541748
 22
3.80171799659729
 32
2.0063276290893555
 13
-2.1442699432373047
 23
4.2191009521484375
 33
2.0063276290893555
  0
3DFACE
  8
0
 10
-2.543959617614746
 20
4.101681232452393
 30
4.053622722625732
 11
-2.5401358604431152
 21
4.104019641876221
 31
4.053622722625732
 12
-2.147141218185425
 22
4.223796367645264
 32
2.0280513763427734
 13
-2.8296303749084473
 23
3.806413173675537
 33
2.0280513763427734
  0
3DFACE
  8
0
 10
-2.0253405570983887
 20
3.2622458934783936
 30
0.1772296279668808
 11
-2.0276074409484863
 21
3.2659523487091064
 31
0.17612887918949127
 12
-2.1442699432373047
 22
4.2191009521484375
 32
2.0063276290893555
 13
-1.7396697998046875
 23
3.557514190673828
 33
2.202800750732422
  0
3DFACE
  8
0
 10
-2.5401358604431152
 20
4.104019641876221
 30
4.053622722625732
 11
-2.5378692150115967
 21
4.100313186645508
 31
4.054723262786865
 12
-1.7425411939620972
 22
3.562209367752075
 32
2.22452449798584
 13
-2.147141218185425
 23
4.223796367645264
 33
2.0280513763427734
  0
3DFACE
  8
0
 10
-2.0276074409484863
 20
3.2659523487091064
 30
0.17612887918949127
 11
-2.0253405570983887
 21
3.2622458934783936
 31
0.1772296279668808
 12
-2.0291643142700195
 22
3.2599074840545654
 32
0.1772296279668808
 13
-2.031430959701538
 23
3.2636141777038574
 33
0.17612887918949127
  0
3DFACE
  8
0
 10
-1.1078356504440308
 20
1.0830011367797852
 30
2.8652801513671875
 11
-1.1037877798080444
 21
1.0763822793960571
 31
2.8815557956695557
 12
-1.4353420734405518
 22
1.6185272932052612
 32
3.18448543548584
 13
-1.439389944076538
 23
1.6251461505889893
 33
3.1682097911834717
  0
3DFACE
  8
0
 10
-0.5072453022003174
 20
1.4502981901168823
 30
2.8652801513671875
 11
-0.5031974911689758
 21
1.4436793327331543
 31
2.8815557956695557
 12
-1.1037877798080444
 22
1.0763822793960571
 32
2.8815557956695557
 13
-1.1078356504440308
 23
1.0830011367797852
 33
2.8652801513671875
  0
3DFACE
  8
0
 10
-0.7283012866973877
 20
1.1427929401397705
 30
3.984781265258789
 11
-0.7311084270477295
 21
1.1473829746246338
 31
3.9873461723327637
 12
-0.7361932992935181
 22
1.144273281097412
 32
3.9873461723327637
 13
-0.733386218547821
 23
1.1396831274032593
 33
3.984781265258789
  0
3DFACE
  8
0
 10
-1.439389944076538
 20
1.6251461505889893
 30
3.1682097911834717
 11
-1.4353420734405518
 21
1.6185272932052612
 31
3.18448543548584
 12
-0.8347517251968384
 22
1.9858243465423584
 32
3.18448543548584
 13
-0.8387995362281799
 23
1.9924432039260864
 33
3.1682097911834717
  0
3DFACE
  8
0
 10
-0.8387995362281799
 20
1.9924432039260864
 30
3.1682097911834717
 11
-0.8347517251968384
 21
1.9858243465423584
 31
3.18448543548584
 12
-0.5031974911689758
 22
1.4436793327331543
 32
2.8815557956695557
 13
-0.5072453022003174
 23
1.4502981901168823
 33
2.8652801513671875
  0
3DFACE
  8
0
 10
-1.2092012166976929
 20
1.9291423559188843
 30
2.0649843215942383
 11
-1.2142860889434814
 21
1.926032543182373
 31
2.0649843215942383
 12
-1.471636414527893
 22
1.8738105297088623
 32
2.450319290161133
 13
-1.0454655885696411
 23
2.134439468383789
 33
2.450319290161133
  0
3DFACE
  8
0
 10
-1.0454655885696411
 20
2.134439468383789
 30
2.450319290161133
 11
-1.471636414527893
 21
1.8738105297088623
 31
2.450319290161133
 12
-1.439389944076538
 22
1.6251461505889893
 32
3.1682097911834717
 13
-0.8387995362281799
 23
1.9924432039260864
 33
3.1682097911834717
  0
3DFACE
  8
0
 10
-0.7361932992935181
 20
1.144273281097412
 30
3.9873461723327637
 11
-0.7311084270477295
 21
1.1473829746246338
 31
3.9873461723327637
 12
-0.7062174081802368
 22
1.5797137022018433
 32
3.814401149749756
 13
-1.1323882341384888
 23
1.319084644317627
 33
3.814401149749756
  0
3DFACE
  8
0
 10
-1.1323882341384888
 20
1.319084644317627
 30
3.814401149749756
 11
-0.7062174081802368
 21
1.5797137022018433
 31
3.814401149749756
 12
-0.8347517251968384
 22
1.9858243465423584
 32
3.18448543548584
 13
-1.4353420734405518
 23
1.6185272932052612
 33
3.18448543548584
  0
3DFACE
  8
0
 10
-1.206394076347351
 20
1.9245522022247314
 30
2.0624194145202637
 11
-1.2092012166976929
 21
1.9291423559188843
 31
2.0649843215942383
 12
-1.0454655885696411
 22
2.134439468383789
 32
2.450319290161133
 13
-0.8101991415023804
 23
1.7497408390045166
 33
2.2353644371032715
  0
3DFACE
  8
0
 10
-0.8101991415023804
 20
1.7497408390045166
 30
2.2353644371032715
 11
-1.0454655885696411
 21
2.134439468383789
 31
2.450319290161133
 12
-0.8387995362281799
 22
1.9924432039260864
 32
3.1682097911834717
 13
-0.5072453022003174
 23
1.4502981901168823
 33
2.8652801513671875
  0
3DFACE
  8
0
 10
-0.7311084270477295
 20
1.1473829746246338
 30
3.9873461723327637
 11
-0.7283012866973877
 21
1.1427929401397705
 31
3.984781265258789
 12
-0.47095099091529846
 22
1.1950149536132812
 32
3.5994462966918945
 13
-0.7062174081802368
 23
1.5797137022018433
 33
3.814401149749756
  0
3DFACE
  8
0
 10
-0.7062174081802368
 20
1.5797137022018433
 30
3.814401149749756
 11
-0.47095099091529846
 21
1.1950149536132812
 31
3.5994462966918945
 12
-0.5031974911689758
 22
1.4436793327331543
 32
2.8815557956695557
 13
-0.8347517251968384
 23
1.9858243465423584
 33
3.18448543548584
  0
3DFACE
  8
0
 10
-1.2114789485931396
 20
1.9214425086975098
 30
2.0624194145202637
 11
-1.206394076347351
 21
1.9245522022247314
 31
2.0624194145202637
 12
-0.8101991415023804
 22
1.7497408390045166
 32
2.2353644371032715
 13
-1.2363699674606323
 23
1.4891117811203003
 33
2.2353644371032715
  0
3DFACE
  8
0
 10
-1.2363699674606323
 20
1.4891117811203003
 30
2.2353644371032715
 11
-0.8101991415023804
 21
1.7497408390045166
 31
2.2353644371032715
 12
-0.5072453022003174
 22
1.4502981901168823
 32
2.8652801513671875
 13
-1.1078356504440308
 23
1.0830011367797852
 33
2.8652801513671875
  0
3DFACE
  8
0
 10
-0.7283012866973877
 20
1.1427929401397705
 30
3.984781265258789
 11
-0.733386218547821
 21
1.1396831274032593
 31
3.984781265258789
 12
-0.897121787071228
 22
0.9343858957290649
 32
3.5994462966918945
 13
-0.47095099091529846
 23
1.1950149536132812
 33
3.5994462966918945
  0
3DFACE
  8
0
 10
-0.47095099091529846
 20
1.1950149536132812
 30
3.5994462966918945
 11
-0.897121787071228
 21
0.9343858957290649
 31
3.5994462966918945
 12
-1.1037877798080444
 22
1.0763822793960571
 32
2.8815557956695557
 13
-0.5031974911689758
 23
1.4436793327331543
 33
2.8815557956695557
  0
3DFACE
  8
0
 10
-1.2142860889434814
 20
1.926032543182373
 30
2.0649843215942383
 11
-1.2114789485931396
 21
1.9214425086975098
 31
2.0624194145202637
 12
-1.2363699674606323
 22
1.4891117811203003
 32
2.2353644371032715
 13
-1.471636414527893
 23
1.8738105297088623
 33
2.450319290161133
  0
3DFACE
  8
0
 10
-1.471636414527893
 20
1.8738105297088623
 30
2.450319290161133
 11
-1.2363699674606323
 21
1.4891117811203003
 31
2.2353644371032715
 12
-1.1078356504440308
 22
1.0830011367797852
 32
2.8652801513671875
 13
-1.439389944076538
 23
1.6251461505889893
 33
3.1682097911834717
  0
3DFACE
  8
0
 10
-0.733386218547821
 20
1.1396831274032593
 30
3.984781265258789
 11
-0.7361932992935181
 21
1.144273281097412
 31
3.9873461723327637
 12
-1.1323882341384888
 22
1.319084644317627
 32
3.814401149749756
 13
-0.897121787071228
 23
0.9343858957290649
 33
3.5994462966918945
  0
3DFACE
  8
0
 10
-0.897121787071228
 20
0.9343858957290649
 30
3.5994462966918945
 11
-1.1323882341384888
 21
1.319084644317627
 31
3.814401149749756
 12
-1.4353420734405518
 22
1.6185272932052612
 32
3.18448543548584
 13
-1.1037877798080444
 23
1.0763822793960571
 33
2.8815557956695557
  0
3DFACE
  8
0
 10
-1.2114789485931396
 20
1.9214425086975098
 30
2.0624194145202637
 11
-1.2142860889434814
 21
1.926032543182373
 31
2.0649843215942383
 12
-1.2092012166976929
 22
1.9291423559188843
 32
2.0649843215942383
 13
-1.206394076347351
 23
1.9245522022247314
 33
2.0624194145202637
  0
3DFACE
  8
0
 10
-2.0483553409576416
 20
2.5343708992004395
 30
3.330717086791992
 11
-2.0553479194641113
 21
2.5458052158355713
 31
3.3427515029907227
 12
-2.33221173286438
 22
2.9985225200653076
 32
2.751739978790283
 13
-2.325218915939331
 23
2.987088203430176
 33
2.7397053241729736
  0
3DFACE
  8
0
 10
-1.3707349300384521
 20
2.9487764835357666
 30
3.330717086791992
 11
-1.3777276277542114
 21
2.9602108001708984
 31
3.3427517414093018
 12
-2.0553479194641113
 22
2.5458052158355713
 32
3.3427515029907227
 13
-2.0483553409576416
 23
2.5343708992004395
 33
3.330717086791992
  0
3DFACE
  8
0
 10
-2.461029291152954
 20
3.974719285964966
 30
4.09665060043335
 11
-2.4626102447509766
 21
3.977304458618164
 31
4.093275547027588
 12
-2.466479778289795
 22
3.974937915802002
 32
4.093275547027588
 13
-2.4648988246917725
 23
3.9723527431488037
 33
4.09665060043335
  0
3DFACE
  8
0
 10
-2.325218915939331
 20
2.987088203430176
 30
2.7397053241729736
 11
-2.33221173286438
 21
2.9985225200653076
 31
2.751739978790283
 12
-1.65459144115448
 22
3.4129281044006348
 32
2.751739978790283
 13
-1.6475986242294312
 23
3.401493787765503
 33
2.7397055625915527
  0
3DFACE
  8
0
 10
-1.6475986242294312
 20
3.401493787765503
 30
2.7397055625915527
 11
-1.65459144115448
 21
3.4129281044006348
 31
2.751739978790283
 12
-1.3777276277542114
 22
2.9602108001708984
 32
3.3427517414093018
 13
-1.3707349300384521
 23
2.9487764835357666
 33
3.330717086791992
  0
3DFACE
  8
0
 10
-1.2380479574203491
 20
1.9749462604522705
 30
1.9858064651489258
 11
-1.2419174909591675
 21
1.972579836845398
 31
1.9858064651489258
 12
-1.7557604312896729
 22
2.27761173248291
 32
2.0849149227142334
 13
-1.2754771709442139
 23
2.571333885192871
 33
2.0849149227142334
  0
3DFACE
  8
0
 10
-1.2754771709442139
 20
2.571333885192871
 30
2.0849149227142334
 11
-1.7557604312896729
 21
2.27761173248291
 31
2.0849149227142334
 12
-2.325218915939331
 22
2.987088203430176
 32
2.7397053241729736
 13
-1.6475986242294312
 23
3.401493787765503
 33
2.7397055625915527
  0
3DFACE
  8
0
 10
-2.466479778289795
 20
3.974937915802002
 30
4.093275547027588
 11
-2.4626102447509766
 21
3.977304458618164
 31
4.093275547027588
 12
-2.1434216499328613
 22
3.9905638694763184
 32
3.5786454677581787
 13
-2.6237049102783203
 23
3.6968417167663574
 33
3.5786454677581787
  0
3DFACE
  8
0
 10
-2.6237049102783203
 20
3.6968417167663574
 30
3.5786454677581787
 11
-2.1434216499328613
 21
3.9905638694763184
 31
3.5786454677581787
 12
-1.65459144115448
 22
3.4129281044006348
 32
2.751739978790283
 13
-2.33221173286438
 23
2.9985225200653076
 33
2.751739978790283
  0
3DFACE
  8
0
 10
-1.236466884613037
 20
1.9723609685897827
 30
1.9891812801361084
 11
-1.2380479574203491
 21
1.9749462604522705
 31
1.9858064651489258
 12
-1.2754771709442139
 22
2.571333885192871
 32
2.0849149227142334
 13
-1.0792418718338013
 23
2.250457286834717
 33
2.5038115978240967
  0
3DFACE
  8
0
 10
-1.0792418718338013
 20
2.250457286834717
 30
2.5038115978240967
 11
-1.2754771709442139
 21
2.571333885192871
 31
2.0849149227142334
 12
-1.6475986242294312
 22
3.401493787765503
 32
2.7397055625915527
 13
-1.3707349300384521
 23
2.9487764835357666
 33
3.330717086791992
  0
3DFACE
  8
0
 10
-2.4626102447509766
 20
3.977304458618164
 30
4.093275547027588
 11
-2.461029291152954
 21
3.974719285964966
 31
4.09665060043335
 12
-1.9471862316131592
 22
3.669687271118164
 32
3.997542142868042
 13
-2.1434216499328613
 23
3.9905638694763184
 33
3.5786454677581787
  0
3DFACE
  8
0
 10
-2.1434216499328613
 20
3.9905638694763184
 30
3.5786454677581787
 11
-1.9471862316131592
 21
3.669687271118164
 31
3.997542142868042
 12
-1.3777276277542114
 22
2.9602108001708984
 32
3.3427517414093018
 13
-1.65459144115448
 23
3.4129281044006348
 33
2.751739978790283
  0
3DFACE
  8
0
 10
-1.2403364181518555
 20
1.9699945449829102
 30
1.9891812801361084
 11
-1.236466884613037
 21
1.9723609685897827
 31
1.9891812801361084
 12
-1.0792418718338013
 22
2.250457286834717
 32
2.5038115978240967
 13
-1.5595251321792603
 23
1.9567351341247559
 33
2.5038115978240967
  0
3DFACE
  8
0
 10
-1.5595251321792603
 20
1.9567351341247559
 30
2.5038115978240967
 11
-1.0792418718338013
 21
2.250457286834717
 31
2.5038115978240967
 12
-1.3707349300384521
 22
2.9487764835357666
 32
3.330717086791992
 13
-2.0483553409576416
 23
2.5343708992004395
 33
3.330717086791992
  0
3DFACE
  8
0
 10
-2.461029291152954
 20
3.974719285964966
 30
4.09665060043335
 11
-2.4648988246917725
 21
3.9723527431488037
 31
4.09665060043335
 12
-2.427469491958618
 22
3.375965118408203
 32
3.997542142868042
 13
-1.9471862316131592
 23
3.669687271118164
 33
3.997542142868042
  0
3DFACE
  8
0
 10
-1.9471862316131592
 20
3.669687271118164
 30
3.997542142868042
 11
-2.427469491958618
 21
3.375965118408203
 31
3.997542142868042
 12
-2.0553479194641113
 22
2.5458052158355713
 32
3.3427515029907227
 13
-1.3777276277542114
 23
2.9602108001708984
 33
3.3427517414093018
  0
3DFACE
  8
0
 10
-1.2419174909591675
 20
1.972579836845398
 30
1.9858064651489258
 11
-1.2403364181518555
 21
1.9699945449829102
 31
1.9891812801361084
 12
-1.5595251321792603
 22
1.9567351341247559
 32
2.5038115978240967
 13
-1.7557604312896729
 23
2.27761173248291
 33
2.0849149227142334
  0
3DFACE
  8
0
 10
-1.7557604312896729
 20
2.27761173248291
 30
2.0849149227142334
 11
-1.5595251321792603
 21
1.9567351341247559
 31
2.5038115978240967
 12
-2.0483553409576416
 22
2.5343708992004395
 32
3.330717086791992
 13
-2.325218915939331
 23
2.987088203430176
 33
2.7397053241729736
  0
3DFACE
  8
0
 10
-2.4648988246917725
 20
3.9723527431488037
 30
4.09665060043335
 11
-2.466479778289795
 21
3.974937915802002
 31
4.093275547027588
 12
-2.6237049102783203
 22
3.6968417167663574
 32
3.5786454677581787
 13
-2.427469491958618
 23
3.375965118408203
 33
3.997542142868042
  0
3DFACE
  8
0
 10
-2.427469491958618
 20
3.375965118408203
 30
3.997542142868042
 11
-2.6237049102783203
 21
3.6968417167663574
 31
3.5786454677581787
 12
-2.33221173286438
 22
2.9985225200653076
 32
2.751739978790283
 13
-2.0553479194641113
 23
2.5458052158355713
 33
3.3427515029907227
  0
3DFACE
  8
0
 10
-1.2403364181518555
 20
1.9699945449829102
 30
1.9891812801361084
 11
-1.2419174909591675
 21
1.972579836845398
 31
1.9858064651489258
 12
-1.2380479574203491
 22
1.9749462604522705
 32
1.9858064651489258
 13
-1.236466884613037
 23
1.9723609685897827
 33
1.9891812801361084
  0
ENDSEC
  0
EOF
